<svg xmlns="http://www.w3.org/2000/svg" width="52" height="52" fill="none"><path stroke="#FE2C55" stroke-width="2" d="M51 26h-.034l-.026.001-.034.002-.04.002-.05.003-.055.005-.063.005-.07.007-.079.008-.084.01-.093.011-.099.014-.106.015-.113.018-.12.02-.126.022-.133.025-.14.028-.147.03-.152.034-.16.036-.165.04-.17.042-.178.047-.183.05-.189.052-.194.057-.2.061-.204.065-.21.068-.215.073-.22.076-.225.08-.23.086-.233.089-.238.094-.241.098-.246.102-.25.107-.253.112-.257.116-.26.12-.263.126-.266.13-.268.135-.272.14-.273.144-.276.149-.278.153-.28.159-.281.163-.283.168-.285.172-.285.177-.287.181-.287.186-.288.191-.288.195-.289.2-.288.204-.289.208-.288.213-.288.216-.287.22-.287.226-.286.228-.284.233-.284.236-.281.24-.28.243-.28.247-.276.25-.275.254-.273.256-.27.26-.268.262-.265.265-.262.268-.26.27-.257.272-.254.275-.25.276-.247.279-.244.28-.24.282-.237.283-.232.285-.23.285-.224.287-.221.287-.217.288-.213.288-.209.289-.204.288-.2.289-.195.288-.191.288-.187.287-.182.287-.177.285-.173.285-.168.283-.163.282-.16.28-.153.278-.15.276-.144.273-.14.272-.135.269-.13.266-.126.263-.122.26-.116.257-.112.254-.107.25-.103.246-.099.242-.094.238-.09.234-.084.23-.082.225-.076.22-.073.216-.069.21-.065.205-.06.2-.058.195-.053.19-.05.182-.047.178-.043.172-.04.165-.036.16-.034.153-.03.147-.029.14-.025.134-.022.127-.02.12-.018.114-.016.107-.014.1-.011.092-.01.086-.009.078-.006.071-.006.064-.004.056-.003.05-.003.041-.001.035-.001.026v.02l-.001.011V51v-.033l-.002-.025-.001-.033-.002-.04-.003-.048-.004-.055-.006-.063-.006-.07-.008-.077-.01-.085-.011-.091-.014-.099-.015-.105-.018-.113-.02-.119-.022-.126-.024-.133-.028-.14-.03-.145-.033-.152-.036-.159-.04-.164-.042-.171-.046-.177-.05-.182-.052-.189-.057-.193-.06-.2-.064-.204-.069-.21-.072-.214-.076-.22-.08-.224-.085-.229-.089-.233-.093-.238-.098-.241-.102-.246-.107-.25-.11-.252-.117-.257-.12-.26-.125-.262-.13-.266-.134-.268-.14-.271-.143-.274-.149-.275-.153-.278-.158-.28-.163-.281-.167-.283-.172-.284-.177-.285-.181-.287-.186-.287-.19-.288-.195-.288-.2-.289-.203-.288-.207-.289-.213-.288-.216-.288-.22-.288-.225-.286-.228-.286-.232-.285-.236-.283-.24-.282-.243-.28-.247-.28-.25-.276-.253-.275-.256-.273-.259-.27-.262-.269-.265-.265-.267-.263-.27-.26-.273-.257-.274-.254-.277-.25-.278-.248-.28-.244-.282-.24-.283-.237-.284-.233-.285-.23-.287-.225-.287-.221-.288-.217-.288-.213-.289-.21-.289-.204-.288-.2-.288-.196-.288-.191-.288-.187-.286-.183-.286-.177-.284-.173-.284-.169-.281-.164-.28-.159-.279-.154-.276-.15-.274-.145-.272-.14-.269-.136-.266-.13-.264-.127-.26-.121-.257-.117-.254-.112-.25-.108-.247-.103-.242-.099-.239-.094-.234-.09-.23-.086-.225-.081-.221-.078-.216-.073-.21-.069-.206-.065-.2-.061-.196-.058-.19-.053-.183-.05-.178-.047-.173-.044-.166-.04-.16-.037-.153-.034-.148-.03-.14-.029-.135-.025-.128-.023-.12-.02-.115-.018-.107-.016-.1-.014-.093-.012-.086-.01-.08-.008-.071-.007-.064-.006-.057-.004-.05-.003-.042-.003-.035-.001L1.037 26h-.02L1.005 26H1 1.03l.025-.002.033-.001.04-.002.047-.003.055-.004.062-.005.069-.007.077-.008.083-.01.091-.01.098-.014.105-.015.112-.017.119-.02.126-.022.132-.024.139-.028.145-.03.152-.032.158-.036.164-.04.17-.042.176-.045.182-.05.188-.052.193-.056.2-.06.203-.064.21-.068.214-.072.219-.076.224-.08.228-.084.233-.089.237-.093.242-.097.245-.102.249-.106.253-.111.256-.116.26-.12.262-.124.265-.13.268-.134.271-.138.274-.144.275-.148.278-.153.28-.157.28-.163.283-.167.284-.171.285-.177.287-.18.287-.186.288-.19.288-.194.289-.2.288-.202.289-.208.288-.212.288-.216.288-.22.286-.224.286-.228.285-.232.283-.235.283-.24.28-.242.28-.247.276-.25.275-.252.273-.256.27-.26.27-.261.265-.265.263-.267.26-.27.257-.272.254-.274.251-.276.248-.279.244-.28.24-.281.238-.283.233-.284.23-.286.226-.286.221-.287.218-.288.213-.288.21-.289.205-.289.2-.288.196-.289.192-.288.187-.287.183-.287.178-.285.174-.285.168-.283.165-.282.159-.28.155-.279.15-.276.145-.274.14-.272.137-.27.131-.266.127-.264.121-.26.118-.258.112-.254.108-.25.104-.247.1-.243.094-.239.09-.235.086-.23.082-.226.077-.22.074-.217.07-.211.065-.206.061-.201.058-.196.054-.19.05-.184.048-.179.043-.172.04-.167.038-.16.034-.155.03-.147.03-.142.025-.135.023-.128.02-.121.019-.115.015-.108.014-.1.012-.094.01-.087.01-.08.006-.072.006-.065.005-.057.003-.05.002-.043.002-.036L26 1.04v-.033L26 1v.028l.001.025.002.032.002.039.003.047.004.054.005.061.006.07.008.075.01.083.01.09.014.098.014.105.018.11.019.12.022.124.024.132.027.138.03.145.032.151.036.158.039.163.042.17.045.176.05.181.052.188.056.193.06.198.063.204.067.208.072.214.076.22.08.223.083.228.088.232.093.237.097.241.101.245.106.249.11.252.116.256.12.26.124.262.129.265.134.268.138.27.143.274.148.275.152.277.158.28.162.28.166.283.171.284.176.286.18.286.186.287.19.288.193.288.199.288.203.29.207.288.211.288.216.288.22.288.224.286.227.286.232.285.235.284.24.282.242.28.246.28.25.277.252.275.256.273.258.271.262.269.264.266.268.263.27.26.271.258.274.254.276.251.278.248.28.245.282.24.282.238.285.234.285.23.286.226.287.222.288.218.288.213.289.21.288.205.29.201.288.197.287.192.288.188.287.182.286.179.284.174.284.169.282.165.28.16.279.154.276.15.274.147.272.14.27.137.267.132.264.127.26.122.258.117.255.113.25.109.248.104.243.1.239.094.235.091.23.086.227.082.221.078.217.074.211.07.207.066.201.061.196.058.19.055.185.05.18.048.172.044.168.04.16.038.155.034.149.031.142.029.135.026.129.023.122.02.115.019.108.016.102.014.094.012.087.01.08.01.073.007.066.005.058.005.05.004.044.002.036.002h.029l.02.002H51Z" clip-rule="evenodd"/></svg>