<svg xmlns="http://www.w3.org/2000/svg" width="32" height="32" fill="none"><path stroke="#111" stroke-width="2" d="M31 16H30.964l-.02.002-.025.001-.029.002-.034.003-.037.003-.043.004-.046.005-.051.006-.055.007-.06.008-.064.009-.067.01-.072.013-.076.013-.08.015-.084.017-.088.018-.092.02-.095.022-.1.023-.102.026-.106.028-.11.03-.113.032-.117.034-.12.036-.122.039-.126.04-.13.044-.131.046-.135.049-.138.05-.14.054-.142.056-.146.06-.147.06-.15.065-.152.067-.154.07-.156.072-.158.075-.16.078-.16.081-.163.084-.164.087-.166.089-.167.092-.168.095-.168.098-.17.1-.17.104-.172.106-.172.109-.172.112-.173.114-.173.117-.173.12-.173.122-.174.125-.172.128-.173.13-.173.132-.172.135-.171.137-.17.14-.17.141-.17.144-.168.146-.167.148-.166.15-.165.153-.164.153-.162.156-.16.158-.16.159-.157.16-.156.162-.154.164-.152.164-.15.166-.149.167-.146.169-.144.169-.142.17-.14.17-.137.172-.135.172-.133.172-.13.173-.128.173-.125.173-.122.173-.12.173-.118.173-.114.173-.112.172-.11.172-.106.171-.103.171-.101.17-.098.169-.095.168-.093.167-.09.165-.086.165-.084.163-.081.16-.078.16-.076.159-.073.156-.07.154-.067.152-.064.15-.062.148-.059.145-.056.143-.054.14-.051.138-.049.135-.046.132-.044.13-.041.126-.039.123-.037.12-.034.117-.032.113-.03.11-.028.107-.026.103-.023.1-.023.095-.02.092-.018.088-.017.084-.015.08-.013.077-.013.072-.01.068-.01.064-.008.06-.007.055-.006.052-.005.047-.004.042-.003.039-.003.034-.002.029-.001.025-.001.02v.028l-.001.007V31v-.035l-.002-.02-.001-.024-.002-.029-.002-.033-.004-.037-.004-.042-.004-.047-.006-.05-.007-.055-.008-.06-.01-.063-.01-.067-.012-.072-.013-.075-.015-.08-.016-.083-.018-.088-.02-.091-.022-.095-.024-.1-.025-.102-.028-.106-.03-.11-.031-.112-.034-.116-.036-.12-.039-.123-.04-.125-.044-.13-.046-.13-.048-.135-.05-.138-.054-.14-.056-.142-.059-.145-.06-.147-.065-.15-.067-.152-.069-.154-.072-.155-.075-.158-.078-.16-.08-.16-.084-.163-.087-.164-.089-.166-.092-.166-.095-.168-.097-.169-.1-.17-.104-.17-.106-.171-.108-.172-.112-.173-.114-.172-.117-.173-.12-.173-.122-.174-.124-.173-.128-.173-.13-.173-.132-.172-.134-.172-.137-.171-.14-.171-.141-.17-.144-.17-.146-.168-.148-.167-.15-.166-.152-.165-.153-.164-.156-.162-.157-.16-.159-.16-.16-.158-.162-.156-.164-.154-.164-.152-.166-.15-.167-.15-.168-.146-.17-.144-.17-.142-.17-.14-.171-.137-.172-.136-.172-.132-.173-.13-.173-.129-.173-.125-.173-.123-.173-.12-.174-.117-.172-.115-.173-.112-.172-.11-.171-.106-.17-.104-.17-.101-.17-.099-.168-.095-.167-.093-.165-.09-.165-.087-.163-.084-.161-.08-.16-.08-.158-.075-.156-.073-.155-.07-.152-.068-.15-.064-.148-.062-.146-.06-.143-.056-.14-.054-.138-.051-.135-.05-.133-.046-.13-.043-.126-.042-.123-.039-.12-.037-.118-.034-.113-.032-.11-.03-.107-.029-.104-.026-.1-.024-.095-.022-.093-.02-.088-.019-.085-.017-.08-.015-.077-.013-.072-.013-.069-.01-.064-.01-.06-.008-.056-.007-.052-.006-.047-.006-.043-.004-.039-.003-.034-.003-.03-.002-.025-.001-.021-.001H1.01L1.003 16H1h.033l.02-.002.024-.001.028-.002.033-.002.037-.003.042-.004.046-.005.05-.006.054-.007.06-.008.062-.009.067-.01.072-.012.075-.013.08-.015.083-.016.087-.018.09-.02.096-.021.098-.024.102-.025.106-.027.11-.03.112-.032.116-.033.12-.036.122-.039.125-.04.129-.043.131-.046.134-.048.138-.05.14-.054.142-.056.144-.058.148-.06.149-.065.152-.066.153-.07.156-.072.157-.074.16-.078.16-.08.163-.084.164-.086.165-.089.167-.091.168-.095.168-.097.17-.1.17-.103.172-.106.171-.109.173-.111.172-.114.173-.117.174-.119.173-.122.173-.124.173-.127.173-.13.172-.132.172-.134.172-.137.17-.14.17-.14.17-.144.168-.146.168-.148.166-.15.165-.151.164-.154.162-.155.161-.158.16-.158.157-.16.156-.163.155-.163.152-.164.15-.166.15-.167.146-.168.144-.169.143-.17.14-.17.137-.172.136-.171.133-.173.13-.172.128-.173.126-.173.123-.174.12-.173.118-.173.115-.173.112-.172.11-.172.107-.171.104-.171.101-.17.099-.17.095-.167.093-.167.09-.166.088-.165.084-.163.081-.162.08-.16.075-.158.073-.156.07-.155.068-.152.065-.15.062-.148.06-.146.056-.143.055-.141.051-.138.05-.136.046-.132.044-.13.042-.127.039-.124.037-.12.034-.117.033-.114.03-.111.028-.107.027-.104.024-.1.022-.096.02-.093.02-.088.016-.085.016-.081.013-.077.013-.073.01-.069.01-.064.008-.06.008-.057.006-.052.005-.048.004-.043.004-.039.002-.035.002-.03.002-.025V1.04L16 1.023V1v.032l.002.019v.023l.003.028.002.033.003.037.004.041.005.046.005.05.007.054.008.058.009.063.01.067.012.07.013.076.014.079.016.083.018.087.02.09.021.095.024.098.025.102.027.105.03.11.03.112.034.115.036.12.038.122.04.125.044.128.045.131.048.135.05.136.053.14.056.142.058.145.06.147.064.149.067.151.069.154.072.155.074.158.078.159.08.16.083.163.086.164.088.165.092.167.094.167.097.169.1.17.103.17.105.171.109.172.11.172.115.173.116.173.12.173.12.173.125.173.127.173.13.173.131.172.135.172.136.172.14.17.14.171.144.17.145.168.148.167.15.167.151.165.154.164.155.162.157.161.159.16.16.158.162.156.163.154.164.153.166.15.167.15.167.146.17.145.169.142.17.14.172.138.171.136.173.133.172.131.173.128.174.126.173.123.173.12.173.119.173.115.172.113.172.11.172.106.17.105.17.101.17.099.168.096.167.093.166.09.165.088.163.084.162.082.16.079.158.076.157.073.154.071.153.068.15.065.149.062.146.06.143.057.141.054.138.052.136.05.133.046.13.044.127.042.124.04.12.037.118.035.114.032.111.03.108.03.104.025.1.025.096.022.093.02.09.02.084.017.082.015.077.014.073.013.07.01.064.01.061.009.057.007.052.006.048.005.044.005.039.003.035.003.03.002.026.002h.022l.017.001H31Z" clip-rule="evenodd"/></svg>