<svg xmlns="http://www.w3.org/2000/svg" width="78" height="56" fill="none"><path stroke="#111" stroke-width="2" d="m7.622 5.316-.229.518-.228.518-.228.517-.226.515-.225.513-.223.51-.222.508-.218.505-.216.501-.214.497-.21.493-.206.488-.203.483-.199.478-.194.471-.19.466-.185.459-.18.452-.175.445-.17.437-.163.43-.157.421-.151.413-.145.404-.138.394-.13.386-.124.375-.117.366-.109.356-.1.345-.094.334-.085.323-.077.313-.069.3-.06.29-.051.277-.043.265-.033.253-.025.241-.015.229-.006.215.003.203.013.19.022.178.032.164.042.15.051.139.062.124.07.111.081.098.091.085.1.071.11.058.121.044.13.031.14.018.15.004.159-.008.169-.022.178-.035.188-.048.198-.06.207-.074.216-.085.225-.099.235-.11.243-.123.252-.135.26-.146.27-.158.278-.17.285-.18.294-.191.302-.202.309-.212.317-.223.324-.233.331-.241.338-.252.345-.26.35-.27.358-.277.363-.286.37-.293.374-.301.38-.308.385-.315.39-.321.393-.328.398-.333.402-.338.406-.344.41-.348.412-.352.415-.356.418-.36.42-.362.422-.366.423-.367.425-.37.426-.37.427-.373.428-.373.427-.373.428-.373.427-.372.427-.372.425-.37.424-.368.423-.367.42-.364.42-.36.416-.358.414-.354.41-.35.407-.346.404-.34.4-.336.396-.33.392-.324.387-.318.382-.31.376-.305.372-.297.366-.289.36-.28.354-.274.347-.264.341-.255.334-.247.328-.236.32-.227.312-.217.305-.207.297-.196.29-.185.28-.174.274-.163.264-.152.256-.14.247-.127.239-.116.229-.104.22-.091.211-.08.202-.066.192-.053.183-.04.173-.028.163-.015h.154l.145.011.134.025.124.039.115.052.105.065.095.079.085.092.075.105.066.119.056.132.045.145.037.158.026.172.017.184.008.198-.002.21-.011.223-.02.235-.03.248-.039.26-.047.272-.057.284-.065.296-.073.307-.081.318-.09.33-.098.34-.105.35-.114.362-.12.372-.128.38-.135.391-.142.4-.148.41-.154.417-.161.426-.167.434-.172.441-.178.45-.183.455-.188.463-.192.469-.197.475-.201.48-.205.487-.209.49-.212.496-.214.499-.218.503-.22.507-.223.51-.224.511-.225.514-.227.516-.229.518-.229.518-.229.519-.23.519-.228.519-.23.518-.227.517-.227.516-.226.514-.224.512-.222.509-.22.506-.217.503-.214.498-.212.495-.208.49-.204.486-.2.48-.197.474-.192.468-.188.462-.182.455-.177.448-.172.441-.166.433-.16.425-.154.417-.147.408-.14.398-.135.39-.127.38-.12.37-.112.36-.104.35-.097.339-.089.328-.08.317-.073.306-.064.294-.055.283-.046.27-.038.259-.028.246-.02.234-.01.221v.209l.008.196.018.183.028.17.038.156.047.144.057.13.066.117.077.104.086.09.096.078.106.063.116.05.126.038.135.023.146.01.155-.003.165-.016.174-.029.184-.042.193-.055.203-.068.212-.08.221-.093.23-.105.24-.117.248-.13.257-.141.266-.153.274-.164.282-.176.29-.187.298-.197.306-.208.314-.218.32-.228.329-.238.335-.247.341-.256.349-.266.354-.274.361-.282.367-.29.372-.298.377-.305.383-.312.387-.318.392-.325.397-.33.4-.337.404-.34.408-.347.411-.35.414-.355.417-.358.419-.361.421-.365.423-.366.424-.369.426-.37.427-.372.427-.372.427-.373.428-.373.427-.373.427-.372.426-.371.425-.37.424-.367.421-.365.42-.362.417-.36.415-.355.412-.352.409-.347.405-.343.402-.338.398-.332.393-.327.39-.32.383-.314.38-.308.373-.3.369-.292.362-.285.357-.277.35-.268.344-.26.337-.25.33-.24.324-.232.316-.22.308-.212.3-.2.294-.19.284-.18.277-.168.268-.156.26-.145.25-.133.243-.122.233-.109.225-.097.215-.084.205-.072.197-.059.187-.046.177-.033.168-.02.158-.008.148.006.139.02.129.033.119.046.11.059.098.073.09.086.08.1.07.112.06.126.05.14.04.152.03.166.022.179.012.191.002.205-.007.217-.017.23-.025.243-.035.254-.043.267-.053.279-.06.29-.07.303-.079.313-.086.325-.094.335-.102.347-.11.356-.117.367-.125.377-.132.387-.138.396-.146.405-.152.413-.158.423-.164.43-.17.439-.175.445-.18.453-.187.46-.19.466-.195.473-.2.478-.203.484-.207.488-.21.494-.214.497-.216.502-.22.505-.22.508-.224.511-.225.513-.226.516-.228.516-.229.518-.229.519-.23.519-.229.519-.229.519-.228.517-.227.517-.227.515-.224.512-.223.51-.221.508-.218.504-.216.501-.213.497-.21.492-.206.487-.202.483-.199.477-.193.47-.19.465-.184.459-.18.45-.174.445-.168.436-.163.429-.157.42-.15.412-.144.402-.137.394-.13.384-.123.375-.115.364-.108.355-.1.343-.093.333-.084.322-.076.311-.068.3-.059.287-.05.276-.041.264-.033.252-.023.239-.014.227-.005.214.004.202.014.188.024.176.033.162.043.15.052.136.063.123.072.11.082.096.092.083.102.07.111.055.121.043.132.03.14.016.151.003.161-.01.17-.024.18-.036.189-.05.199-.062.208-.075.217-.087.226-.1.236-.112.244-.124.253-.136.262-.148.27-.16.279-.17.287-.182.294-.193.303-.203.31-.213.318-.224.325-.234.332-.243.338-.252.346-.262.352-.27.358-.279.364-.286.37-.295.375-.301.38-.31.386-.315.39-.322.394-.328.399-.334.403-.34.406-.343.41-.349.412-.352.416-.357.418-.36.42-.363.422-.366.424-.367.425-.37.426-.371.427-.372.428-.373.427-.373.428-.373.427-.373.426-.37.426-.371.424-.368.422-.366.42-.364.42-.36.415-.358.414-.353.41-.35.407-.345.403-.34.4-.335.395-.329.39-.323.387-.317.382-.31.376-.303.37-.296.366-.289.359-.28.353-.272.347-.263.34-.254.333-.245.327-.236.319-.226.312-.215.304-.205.296-.195.288-.184.28-.173.272-.162.264-.15.255-.138.246-.127.237-.114.228-.102.22-.09.21-.078.2-.064.19-.052.182-.039.172-.026.163-.013h.152l.143.014.133.027.124.04.113.053.104.067.094.08.084.094.074.107.064.12.055.134.044.147.036.16.025.173.016.186.006.199-.003.212-.012.224-.022.237-.03.25-.04.26-.049.274-.057.286-.066.297-.074.308-.083.32-.09.33-.1.342-.106.353-.114.362-.121.373-.129.382-.136.392-.142.4-.149.41m-.317.846-.167.435-.173.443-.179.45-.183.456-.189.464-.193.47-.197.475-.202.482-.205.486-.209.492-.212.495-.215.5-.218.504-.22.507-.223.51-.225.512-.226.514-.227.516-.228.518-.229.518"/></svg>