<svg width="822" height="492" viewBox="0 0 822 492" fill="none" xmlns="http://www.w3.org/2000/svg">
<path d="M74.3154 37.1574C74.3154 24.1511 74.3154 17.6479 76.8466 12.6802C79.0731 8.31041 82.6258 4.75769 86.9956 2.53119C91.9633 0 98.4665 0 111.473 0H711.057C724.064 0 730.567 0 735.534 2.53119C739.904 4.75769 743.457 8.31041 745.683 12.6802C748.215 17.6479 748.215 24.1511 748.215 37.1573V438.71C748.215 444.622 748.215 447.578 747.064 449.836C746.052 451.822 744.437 453.437 742.451 454.449C740.193 455.6 737.237 455.6 731.325 455.6H91.2051C85.2932 455.6 82.3372 455.6 80.0791 454.449C78.0929 453.437 76.478 451.822 75.466 449.836C74.3154 447.578 74.3154 444.622 74.3154 438.71V37.1574Z" fill="url(#paint0_linear_4701_779)"/>
<path d="M111.473 0.211121H711.057C717.564 0.211121 722.431 0.211285 726.293 0.526819C730.153 0.842152 732.989 1.4714 735.439 2.7193C739.769 4.92556 743.289 8.44598 745.495 12.776C746.743 15.2252 747.372 18.062 747.688 21.9215C748.003 25.7834 748.003 30.6507 748.003 37.1573V438.71C748.003 441.67 748.003 443.876 747.86 445.626C747.718 447.373 747.434 448.646 746.876 449.74C745.884 451.687 744.302 453.269 742.355 454.261C741.261 454.819 739.988 455.103 738.241 455.246C736.491 455.389 734.284 455.389 731.325 455.389H91.2051C88.2457 455.389 86.0388 455.389 84.2891 455.246C82.5419 455.103 81.2693 454.819 80.175 454.261C78.2285 453.269 76.6459 451.687 75.6541 449.74C75.0965 448.646 74.8124 447.373 74.6697 445.626C74.5267 443.876 74.5266 441.67 74.5266 438.71V37.1574C74.5266 30.6507 74.5267 25.7835 74.8422 21.9215C75.1576 18.062 75.7868 15.2252 77.0347 12.776C79.241 8.44598 82.7614 4.92556 87.0914 2.7193C89.5406 1.4714 92.3774 0.842152 96.2369 0.526819C100.099 0.211285 104.966 0.211121 111.473 0.211121Z" stroke="#222222" stroke-opacity="0.15" stroke-width="0.422243"/>
<g clip-path="url(#clip0_4701_779)">
<path d="M77.6934 40.5353C77.6934 27.529 77.6934 21.0258 80.2246 16.0581C82.4511 11.6883 86.0038 8.13562 90.3735 5.90912C95.3413 3.37793 101.844 3.37793 114.851 3.37793H707.679C720.686 3.37793 727.189 3.37793 732.157 5.90912C736.526 8.13562 740.079 11.6883 742.306 16.0581C744.837 21.0258 744.837 27.529 744.837 40.5353V438.71C744.837 444.622 744.837 447.578 743.686 449.836C742.674 451.822 741.059 453.437 739.073 454.449C736.815 455.6 733.859 455.6 727.947 455.6H94.5831C88.6711 455.6 85.7151 455.6 83.4571 454.449C81.4708 453.437 79.8559 451.822 78.8439 449.836C77.6934 447.578 77.6934 444.622 77.6934 438.71V40.5353Z" fill="url(#paint1_linear_4701_779)"/>
<path d="M81.915 37.8118C81.915 27.3495 81.915 22.1184 83.9188 18.1083C85.7579 14.4275 88.7422 11.4432 92.423 9.60409C96.4331 7.60034 101.664 7.60034 112.126 7.60034H710.402C720.864 7.60034 726.095 7.60034 730.106 9.60409C733.786 11.4432 736.771 14.4275 738.61 18.1083C740.613 22.1184 740.613 27.3495 740.613 37.8118V432.376H81.915V37.8118Z" fill="#050505"/>
<path d="M370.307 17.7341H453.066V33.3571C453.066 35.2227 451.554 36.735 449.688 36.735H373.685C371.819 36.735 370.307 35.2227 370.307 33.3571V17.7341Z" fill="#050505"/>
<circle cx="411.686" cy="25.7569" r="3.90574" fill="#100E13" stroke="#050401" stroke-width="0.633364"/>
<g filter="url(#filter0_f_4701_779)">
<ellipse cx="411.687" cy="25.968" rx="1.68897" ry="1.90009" fill="url(#paint2_linear_4701_779)"/>
<path d="M413.165 25.968C413.165 26.9248 412.481 27.6569 411.687 27.6569C410.894 27.6569 410.209 26.9248 410.209 25.968C410.209 25.0111 410.894 24.279 411.687 24.279C412.481 24.279 413.165 25.0111 413.165 25.968Z" stroke="#0B0F0E" stroke-width="0.422243"/>
</g>
<g filter="url(#filter1_f_4701_779)">
<circle cx="426.465" cy="25.757" r="2.11121" fill="#00FA48"/>
<circle cx="426.465" cy="25.757" r="1.90009" stroke="#011605" stroke-width="0.422243"/>
</g>
<path fill-rule="evenodd" clip-rule="evenodd" d="M370.306 21.7454C370.306 21.8162 370.304 21.8866 370.301 21.9565H366.084V21.9566H370.306V17.7341H366.295H366.084V17.7396C366.154 17.736 366.224 17.7341 366.295 17.7341C368.51 17.7341 370.306 19.5301 370.306 21.7454Z" fill="#050505"/>
<path fill-rule="evenodd" clip-rule="evenodd" d="M453.068 21.7976C453.068 21.8508 453.07 21.9038 453.073 21.9565H457.29V21.9566H453.068V21.7976ZM453.068 21.6932V17.7341H457.06C454.871 17.744 453.095 19.508 453.068 21.6932ZM457.097 17.7341H457.29V17.7396C457.226 17.7362 457.162 17.7344 457.097 17.7341Z" fill="#050505"/>
<path d="M77.6934 432.376H143.985V455.6H88.2494C82.4195 455.6 77.6934 450.874 77.6934 445.044V432.376Z" fill="url(#paint3_linear_4701_779)" fill-opacity="0.2"/>
<path d="M744.836 432.376H678.544V455.6H734.28C740.11 455.6 744.836 450.874 744.836 445.044V432.376Z" fill="url(#paint4_linear_4701_779)" fill-opacity="0.2"/>
<path d="M81.915 432.376H740.613V441.666C740.613 447.496 735.887 452.222 730.057 452.222H92.4711C86.6412 452.222 81.915 447.496 81.915 441.666V432.376Z" fill="url(#paint5_linear_4701_779)"/>
</g>
<path d="M114.851 3.58905H707.679C714.186 3.58905 719.053 3.58922 722.915 3.90475C726.775 4.22008 729.612 4.84933 732.061 6.09723C736.391 8.30349 739.911 11.8239 742.117 16.1539C743.365 18.6031 743.995 21.4399 744.31 25.2994C744.625 29.1614 744.626 34.0286 744.626 40.5353V438.71C744.626 441.669 744.625 443.876 744.482 445.626C744.34 447.373 744.056 448.646 743.498 449.74C742.506 451.687 740.924 453.269 738.977 454.261C737.883 454.819 736.61 455.103 734.863 455.245C733.113 455.388 730.906 455.389 727.947 455.389H94.5831C91.6236 455.389 89.4167 455.388 87.6671 455.245C85.9199 455.103 84.6472 454.819 83.5529 454.261C81.6064 453.269 80.0238 451.687 79.032 449.74C78.4744 448.646 78.1903 447.373 78.0476 445.626C77.9046 443.876 77.9045 441.669 77.9045 438.71V40.5353C77.9045 34.0287 77.9046 29.1614 78.2202 25.2994C78.5355 21.4399 79.1648 18.6031 80.4127 16.1539C82.6189 11.8239 86.1393 8.30349 90.4694 6.09723C92.9185 4.84933 95.7554 4.22008 99.6149 3.90475C103.477 3.58922 108.344 3.58905 114.851 3.58905Z" stroke="#222222" stroke-opacity="0.4" stroke-width="0.422243"/>
<path fill-rule="evenodd" clip-rule="evenodd" d="M50.8887 488.557C50.9812 488.956 51.1512 489.35 51.4077 489.721L51.8795 490.404C52.5101 491.317 53.5492 491.862 54.659 491.862H102.488C103.598 491.862 104.637 491.317 105.268 490.404L105.74 489.721C105.996 489.35 106.166 488.956 106.259 488.557H50.8887Z" fill="#D9D9D9"/>
<path fill-rule="evenodd" clip-rule="evenodd" d="M50.8887 488.557C50.9812 488.956 51.1512 489.35 51.4077 489.721L51.8795 490.404C52.5101 491.317 53.5492 491.862 54.659 491.862H102.488C103.598 491.862 104.637 491.317 105.268 490.404L105.74 489.721C105.996 489.35 106.166 488.956 106.259 488.557H50.8887Z" fill="url(#paint6_linear_4701_779)"/>
<path fill-rule="evenodd" clip-rule="evenodd" d="M50.8887 488.557C50.9812 488.956 51.1512 489.35 51.4077 489.721L51.8795 490.404C52.5101 491.317 53.5492 491.862 54.659 491.862H102.488C103.598 491.862 104.637 491.317 105.268 490.404L105.74 489.721C105.996 489.35 106.166 488.956 106.259 488.557H50.8887Z" fill="#141414" fill-opacity="0.6" style="mix-blend-mode:darken"/>
<path fill-rule="evenodd" clip-rule="evenodd" d="M46.5869 485.463C46.6973 485.887 46.8962 486.302 47.1946 486.687L47.8482 487.531C48.488 488.358 49.474 488.841 50.5189 488.841H106.064C107.109 488.841 108.095 488.358 108.735 487.531L109.388 486.687C109.687 486.302 109.886 485.887 109.996 485.463H46.5869Z" fill="url(#paint7_linear_4701_779)"/>
<path fill-rule="evenodd" clip-rule="evenodd" d="M715.923 488.557C716.015 488.956 716.185 489.35 716.442 489.721L716.914 490.404C717.544 491.317 718.583 491.862 719.693 491.862H767.523C768.632 491.862 769.671 491.317 770.302 490.404L770.774 489.721C771.03 489.35 771.2 488.956 771.293 488.557H715.923Z" fill="#D9D9D9"/>
<path fill-rule="evenodd" clip-rule="evenodd" d="M715.923 488.557C716.015 488.956 716.185 489.35 716.442 489.721L716.914 490.404C717.544 491.317 718.583 491.862 719.693 491.862H767.523C768.632 491.862 769.671 491.317 770.302 490.404L770.774 489.721C771.03 489.35 771.2 488.956 771.293 488.557H715.923Z" fill="url(#paint8_linear_4701_779)"/>
<path fill-rule="evenodd" clip-rule="evenodd" d="M715.923 488.557C716.015 488.956 716.185 489.35 716.442 489.721L716.914 490.404C717.544 491.317 718.583 491.862 719.693 491.862H767.523C768.632 491.862 769.671 491.317 770.302 490.404L770.774 489.721C771.03 489.35 771.2 488.956 771.293 488.557H715.923Z" fill="#141414" fill-opacity="0.6" style="mix-blend-mode:darken"/>
<path fill-rule="evenodd" clip-rule="evenodd" d="M711.619 485.463C711.729 485.887 711.928 486.302 712.227 486.687L712.88 487.531C713.52 488.358 714.506 488.841 715.551 488.841H771.096C772.141 488.841 773.127 488.358 773.767 487.531L774.421 486.687C774.719 486.302 774.918 485.887 775.028 485.463H711.619Z" fill="url(#paint9_linear_4701_779)"/>
<path d="M0 455.6H821.684V455.6C821.684 465.843 821.684 470.965 819.761 474.908C817.903 478.718 814.823 481.798 811.013 483.656C807.07 485.579 801.948 485.579 791.705 485.579H29.9793C19.7359 485.579 14.6142 485.579 10.6715 483.656C6.86098 481.798 3.7815 478.718 1.92301 474.908C0 470.965 0 465.843 0 455.6V455.6Z" fill="url(#paint10_linear_4701_779)"/>
<path d="M0 455.6H158.763V455.6C158.763 465.843 158.763 470.965 156.84 474.908C154.982 478.718 151.902 481.798 148.092 483.656C144.149 485.579 139.027 485.579 128.784 485.579H29.9792C19.7359 485.579 14.6142 485.579 10.6715 483.656C6.86098 481.798 3.7815 478.718 1.92301 474.908C0 470.965 0 465.843 0 455.6V455.6Z" fill="url(#paint11_linear_4701_779)"/>
<path d="M821.684 455.6H662.92V455.6C662.92 465.843 662.92 470.965 664.843 474.908C666.702 478.718 669.781 481.798 673.592 483.656C677.535 485.579 682.656 485.579 692.9 485.579H791.704C801.948 485.579 807.069 485.579 811.012 483.656C814.823 481.798 817.902 478.718 819.761 474.908C821.684 470.965 821.684 465.843 821.684 455.6V455.6Z" fill="url(#paint12_linear_4701_779)"/>
<mask id="mask0_4701_779" style="mask-type:alpha" maskUnits="userSpaceOnUse" x="0" y="455" width="822" height="31">
<path d="M0 455.6H821.684V455.6C821.684 465.843 821.684 470.965 819.761 474.908C817.903 478.718 814.823 481.798 811.013 483.656C807.07 485.579 801.948 485.579 791.705 485.579H29.9793C19.7359 485.579 14.6142 485.579 10.6715 483.656C6.86098 481.798 3.7815 478.718 1.92301 474.908C0 470.965 0 465.843 0 455.6V455.6Z" fill="black"/>
</mask>
<g mask="url(#mask0_4701_779)">
<g filter="url(#filter2_f_4701_779)">
<ellipse cx="812.606" cy="460.456" rx="4.85579" ry="17.5231" fill="#B6B7BB"/>
</g>
</g>
<mask id="mask1_4701_779" style="mask-type:alpha" maskUnits="userSpaceOnUse" x="0" y="455" width="822" height="31">
<path d="M0 455.6H821.684V455.6C821.684 465.843 821.684 470.965 819.761 474.908C817.903 478.718 814.823 481.798 811.013 483.656C807.07 485.579 801.948 485.579 791.705 485.579H29.9793C19.7359 485.579 14.6142 485.579 10.6715 483.656C6.86098 481.798 3.7815 478.718 1.92301 474.908C0 470.965 0 465.843 0 455.6V455.6Z" fill="url(#paint13_linear_4701_779)"/>
</mask>
<g mask="url(#mask1_4701_779)">
<g filter="url(#filter3_f_4701_779)">
<ellipse cx="9.07747" cy="460.456" rx="4.85579" ry="17.5231" fill="#B6B7BB"/>
</g>
</g>
<path d="M335.26 456.031C335.26 455.793 335.453 455.6 335.691 455.6H486.836C487.074 455.6 487.267 455.793 487.267 456.031V456.031C487.267 461.39 482.923 465.734 477.565 465.734H344.962C339.604 465.734 335.26 461.39 335.26 456.031V456.031Z" fill="url(#paint14_linear_4701_779)"/>
<defs>
<filter id="filter0_f_4701_779" x="409.576" y="23.6456" width="4.22241" height="4.64478" filterUnits="userSpaceOnUse" color-interpolation-filters="sRGB">
<feFlood flood-opacity="0" result="BackgroundImageFix"/>
<feBlend mode="normal" in="SourceGraphic" in2="BackgroundImageFix" result="shape"/>
<feGaussianBlur stdDeviation="0.211121" result="effect1_foregroundBlur_4701_779"/>
</filter>
<filter id="filter1_f_4701_779" x="423.931" y="23.2235" width="5.06714" height="5.0669" filterUnits="userSpaceOnUse" color-interpolation-filters="sRGB">
<feFlood flood-opacity="0" result="BackgroundImageFix"/>
<feBlend mode="normal" in="SourceGraphic" in2="BackgroundImageFix" result="shape"/>
<feGaussianBlur stdDeviation="0.211121" result="effect1_foregroundBlur_4701_779"/>
</filter>
<filter id="filter2_f_4701_779" x="803.105" y="438.288" width="19.0013" height="44.3355" filterUnits="userSpaceOnUse" color-interpolation-filters="sRGB">
<feFlood flood-opacity="0" result="BackgroundImageFix"/>
<feBlend mode="normal" in="SourceGraphic" in2="BackgroundImageFix" result="shape"/>
<feGaussianBlur stdDeviation="2.32233" result="effect1_foregroundBlur_4701_779"/>
</filter>
<filter id="filter3_f_4701_779" x="-0.422989" y="438.288" width="19.0013" height="44.3355" filterUnits="userSpaceOnUse" color-interpolation-filters="sRGB">
<feFlood flood-opacity="0" result="BackgroundImageFix"/>
<feBlend mode="normal" in="SourceGraphic" in2="BackgroundImageFix" result="shape"/>
<feGaussianBlur stdDeviation="2.32233" result="effect1_foregroundBlur_4701_779"/>
</filter>
<linearGradient id="paint0_linear_4701_779" x1="901.911" y1="-46.2355" x2="-134.061" y2="628.93" gradientUnits="userSpaceOnUse">
<stop stop-color="#B3B4B8"/>
<stop offset="0.953125" stop-color="#56575B"/>
</linearGradient>
<linearGradient id="paint1_linear_4701_779" x1="411.265" y1="443.777" x2="411.265" y2="455.6" gradientUnits="userSpaceOnUse">
<stop stop-color="#1E1E1E"/>
<stop offset="0.953125" stop-color="#101010"/>
</linearGradient>
<linearGradient id="paint2_linear_4701_779" x1="409.998" y1="27.393" x2="413.323" y2="24.0155" gradientUnits="userSpaceOnUse">
<stop stop-color="#16385B"/>
<stop offset="1" stop-color="#233D58"/>
</linearGradient>
<linearGradient id="paint3_linear_4701_779" x1="80.6491" y1="451.166" x2="88.0266" y2="446.503" gradientUnits="userSpaceOnUse">
<stop stop-color="#D9D9D9" stop-opacity="0.8"/>
<stop offset="0.979167" stop-color="#D9D9D9" stop-opacity="0"/>
<stop offset="1" stop-color="#D9D9D9" stop-opacity="0"/>
</linearGradient>
<linearGradient id="paint4_linear_4701_779" x1="741.88" y1="451.166" x2="734.503" y2="446.503" gradientUnits="userSpaceOnUse">
<stop stop-color="#D9D9D9" stop-opacity="0.8"/>
<stop offset="0.979167" stop-color="#D9D9D9" stop-opacity="0"/>
<stop offset="1" stop-color="#D9D9D9" stop-opacity="0"/>
</linearGradient>
<linearGradient id="paint5_linear_4701_779" x1="411.264" y1="451.703" x2="411.264" y2="452.222" gradientUnits="userSpaceOnUse">
<stop stop-color="#1E1E1E"/>
<stop offset="0.953125" stop-color="#101010"/>
</linearGradient>
<linearGradient id="paint6_linear_4701_779" x1="106.309" y1="488.97" x2="51.3405" y2="488.97" gradientUnits="userSpaceOnUse">
<stop stop-color="#7F8084"/>
<stop offset="0.136552" stop-color="#DCDDE1"/>
<stop offset="0.271962" stop-color="#808185"/>
<stop offset="0.463542" stop-color="#75767A"/>
<stop offset="0.635662" stop-color="#9D9EA2"/>
<stop offset="0.779687" stop-color="#E3E4E8"/>
<stop offset="0.869792" stop-color="#A1A2A6"/>
<stop offset="0.994792" stop-color="#707072"/>
</linearGradient>
<linearGradient id="paint7_linear_4701_779" x1="110.054" y1="485.885" x2="47.1044" y2="485.885" gradientUnits="userSpaceOnUse">
<stop stop-color="#7F8084"/>
<stop offset="0.136552" stop-color="#DCDDE1"/>
<stop offset="0.271962" stop-color="#808185"/>
<stop offset="0.463542" stop-color="#75767A"/>
<stop offset="0.635662" stop-color="#9D9EA2"/>
<stop offset="0.779687" stop-color="#E3E4E8"/>
<stop offset="0.869792" stop-color="#A1A2A6"/>
<stop offset="0.994792" stop-color="#707072"/>
</linearGradient>
<linearGradient id="paint8_linear_4701_779" x1="771.344" y1="488.97" x2="716.375" y2="488.97" gradientUnits="userSpaceOnUse">
<stop stop-color="#7F8084"/>
<stop offset="0.136552" stop-color="#DCDDE1"/>
<stop offset="0.271962" stop-color="#808185"/>
<stop offset="0.463542" stop-color="#75767A"/>
<stop offset="0.635662" stop-color="#9D9EA2"/>
<stop offset="0.779687" stop-color="#E3E4E8"/>
<stop offset="0.869792" stop-color="#A1A2A6"/>
<stop offset="0.994792" stop-color="#707072"/>
</linearGradient>
<linearGradient id="paint9_linear_4701_779" x1="775.086" y1="485.885" x2="712.137" y2="485.885" gradientUnits="userSpaceOnUse">
<stop stop-color="#7F8084"/>
<stop offset="0.136552" stop-color="#DCDDE1"/>
<stop offset="0.271962" stop-color="#808185"/>
<stop offset="0.463542" stop-color="#75767A"/>
<stop offset="0.635662" stop-color="#9D9EA2"/>
<stop offset="0.779687" stop-color="#E3E4E8"/>
<stop offset="0.869792" stop-color="#A1A2A6"/>
<stop offset="0.994792" stop-color="#707072"/>
</linearGradient>
<linearGradient id="paint10_linear_4701_779" x1="398.175" y1="485.579" x2="398.175" y2="455.6" gradientUnits="userSpaceOnUse">
<stop stop-color="#75767A"/>
<stop offset="0.255208" stop-color="#565656"/>
<stop offset="0.630208" stop-color="#BDBEC2"/>
</linearGradient>
<linearGradient id="paint11_linear_4701_779" x1="-3.71209" y1="470.801" x2="43.31" y2="470.801" gradientUnits="userSpaceOnUse">
<stop stop-color="#525357"/>
<stop offset="1" stop-color="#75767A" stop-opacity="0"/>
</linearGradient>
<linearGradient id="paint12_linear_4701_779" x1="825.396" y1="470.801" x2="778.374" y2="470.801" gradientUnits="userSpaceOnUse">
<stop stop-color="#525357"/>
<stop offset="1" stop-color="#75767A" stop-opacity="0"/>
</linearGradient>
<linearGradient id="paint13_linear_4701_779" x1="-19.212" y1="470.801" x2="224.152" y2="470.801" gradientUnits="userSpaceOnUse">
<stop stop-color="#525357"/>
<stop offset="1" stop-color="#75767A" stop-opacity="0.1"/>
</linearGradient>
<linearGradient id="paint14_linear_4701_779" x1="335.26" y1="457.289" x2="487.267" y2="457.289" gradientUnits="userSpaceOnUse">
<stop stop-color="#212224"/>
<stop offset="0.0647" stop-color="#CDCED3"/>
<stop offset="0.229167" stop-color="#E0E0E0"/>
<stop offset="0.530645" stop-color="#AEAEB1"/>
<stop offset="0.761923" stop-color="#E0E0E0"/>
<stop offset="0.943862" stop-color="#CDCED3"/>
<stop offset="1" stop-color="#212224"/>
</linearGradient>
<clipPath id="clip0_4701_779">
<path d="M77.6934 40.5353C77.6934 27.529 77.6934 21.0258 80.2246 16.0581C82.4511 11.6883 86.0038 8.13562 90.3735 5.90912C95.3413 3.37793 101.844 3.37793 114.851 3.37793H707.679C720.686 3.37793 727.189 3.37793 732.157 5.90912C736.526 8.13562 740.079 11.6883 742.306 16.0581C744.837 21.0258 744.837 27.529 744.837 40.5353V438.71C744.837 444.622 744.837 447.578 743.686 449.836C742.674 451.822 741.059 453.437 739.073 454.449C736.815 455.6 733.859 455.6 727.947 455.6H94.5831C88.6711 455.6 85.7151 455.6 83.4571 454.449C81.4708 453.437 79.8559 451.822 78.8439 449.836C77.6934 447.578 77.6934 444.622 77.6934 438.71V40.5353Z" fill="white"/>
</clipPath>
</defs>
</svg>
