<svg width="125" height="178" fill="white" xmlns="http://www.w3.org/2000/svg"><path d="M59 83.306 10.5 103v8.665l8.221-3.324v60.16H26.7v-63.341L59 92.206v-8.9Z"/><path d="M45.846 102.886 37.762 106v62.586h21.43V97.832L51.1 100.88v59.476h-5.255v-57.47ZM114 61.196 78.5 75.563v8.707L114 69.935v-8.739Z"/><path fill-rule="evenodd" clip-rule="evenodd" d="M86.5 168.5v-81l-13.5 5V78l-8 3v87.5h21.5Zm-8-69.5-5.5 2v59.5h5.5V99ZM86.602 22H65v54.5l21.602-9V22ZM78.5 30.5h-5v33.732l5-2.008V30.5ZM59.195 22H37.77v65.296l21.426-8.66V22Zm-8.067 8.143h-4.977L46 75.5l5.128-2.19V30.144Z"/><path d="M125 171.236V178H0V0h125v168.584l-32.5.058V85l21.5-8v8.5l-13 5v29.103l7-.776v8.366l-7 .807v32h15.5V7H8.5v164.256l116.5-.02Z"/><path d="M86.585 9.418H10.5v7.913h8.219V95l8.033-3.166V17.35h59.833V9.418ZM100.637 9.414h-8.078V65.2l7.941-3.226V22.07l5.5-2.52v40.231l8-3.281V13.78l-5.5-4.28-7.863 3.563V9.413Z"/></svg>