<svg width="89" height="89" fill="none" xmlns="http://www.w3.org/2000/svg"><path d="m42.81 48.74-.03.042-.03.042-.032.042-.032.042-.032.041-.034.042-.034.04-.034.041-.036.041-.035.04-.037.04-.037.04-.038.04-.038.039-.039.038-.04.039-.04.038-.04.038-.041.037-.042.037-.043.037-.043.037-.043.036-.045.035-.044.036-.046.035-.046.034-.046.034-.047.034-.048.033-.048.033-.05.032-.048.032-.05.031-.05.031-.052.03-.051.03-.052.03-.053.029-.053.028-.053.028-.055.028-.054.027-.055.026-.056.026-.056.025-.057.025-.057.024-.057.023-.058.024-.059.022-.059.022-.059.02-.06.022-.06.02-.06.019-.062.019-.061.018-.062.017-.062.017-.063.016-.063.015-.064.015-.064.014-.064.014-.064.013-.065.012-.066.011-.065.01-.066.01-.067.01-.066.009-.067.008-.067.007-.068.006-.068.006-.068.005-.068.004-.069.003-.069.003-.069.002h-.07l-.069.001h-.07l-.07-.002-.07-.002-.07-.002-.071-.004-.071-.004-.071-.006-.071-.006-.072-.007-.07-.007-.073-.009-.071-.009-.072-.01-.072-.01-.072-.013-.072-.012-.072-.014-.072-.014-.073-.015-.072-.016-.073-.017-.072-.017-.073-.019-.072-.019-.072-.02-.073-.021-.072-.022-.073-.023-.072-.023-.072-.025-.073-.025-.072-.026-.072-.028-.072-.028-.072-.028-.072-.03-.072-.03-.071-.032-.072-.032-.07-.033-.072-.034-.07-.035-.072-.036-.07-.037-.07-.037-.07-.039-.07-.039-.07-.04-.07-.04-.07-.043-.068-.042-.069-.044-.068-.044-.069-.046-.067-.046-.068-.047-.067-.048-.067-.048-.066-.05-.067-.05-.065-.052-.066-.052-.065-.053-.064-.053-.064-.055-.064-.056-.064-.056-.063-.057-.062-.058-.062-.059-.062-.06-.06-.06-.061-.06-.06-.063-.06-.063-.059-.063-.058-.065-.058-.065-.058-.066-.057-.067-.056-.067-.056-.069-.055-.069-.055-.07-.053-.07-.054-.072-.052-.072-.053-.072-.05-.074-.052-.074-.05-.075-.05-.076-.048-.077-.048-.077-.047-.078-.047-.078-.046-.08-.045-.08-.044-.08-.044-.081-.043-.082-.042-.083-.041-.083-.041-.084-.04-.084-.039-.085-.038-.086-.037-.086-.037-.087-.036-.087-.034-.089-.035-.088-.033-.09-.032-.09-.031-.09-.03-.09-.03-.092-.03-.092-.027-.092-.027-.093-.026-.093-.025-.094-.024-.095-.024-.094-.022-.096-.021-.096-.02-.096-.02-.096-.018-.097-.018-.098-.016-.097-.016-.099-.014-.098-.013-.1-.013-.099-.011-.1-.01-.1-.01-.1-.008-.1-.008-.101-.006-.101-.005-.102-.004-.102-.003-.102-.002-.102-.001-.103v-.102l.001-.103.003-.103.003-.104.004-.103.006-.104.007-.104.007-.104.01-.104.01-.105.01-.104.013-.104.013-.105.015-.105.015-.104.017-.105.018-.105.019-.105.02-.105.021-.104.023-.105.023-.105.025-.105.026-.104.027-.105.028-.105.03-.104.03-.104.032-.105.032-.104.034-.104.035-.104.037-.103.037-.104.039-.103.04-.103.04-.103.042-.103.043-.102.045-.102.045-.102.047-.102.048-.101.049-.101.05-.101.051-.1.052-.1.054-.1.055-.1.056-.099.057-.098.058-.098.06-.098.06-.097.061-.097.063-.096.063-.096.065-.096.066-.094.068-.095.068-.094.07-.093.07-.093.071-.092.073-.092.074-.09.074-.09.076-.09.077-.09.078-.089.08-.087.08-.088.081-.086.082-.086.084-.085.084-.085.086-.083.086-.083.088-.082.088-.082.09-.08.09-.08.092-.08.092-.078.094-.077.094-.077.096-.076.096-.075.097-.073.099-.074.1-.072.1-.071.1-.07.102-.07.103-.069.104-.067.105-.067.105-.066.107-.064.107-.064.108-.063.11-.061.11-.061.11-.06.111-.058.113-.058.113-.056.114-.056.114-.054.116-.053.116-.052.117-.05.118-.05.118-.05.12-.047.119-.046.12-.045.122-.044.122-.043.122-.042.123-.04.124-.04.124-.038.125-.037.126-.035.126-.034.127-.034.127-.031.128-.03.129-.03.128-.028.13-.027.13-.025.13-.024.131-.023.132-.022.131-.02.133-.018.132-.018.133-.016.134-.015.133-.013.135-.012.134-.01.135-.01.135-.008.136-.007.136-.005.136-.004.136-.002h.273l.138.001.137.004.137.004.138.007.138.007.138.01.138.01.138.011.138.014.139.015.138.016.139.018.139.019.138.02.139.023.138.023.139.025.139.027.138.027.139.03.138.03.138.033.139.034.138.035.138.037.137.039.138.04.137.04.138.043.137.044.136.046.137.047.136.049.136.05.136.051.135.054.135.054.135.056.134.058.134.059.134.06.133.062.132.063.133.065.131.066.132.068.13.07.131.07.13.072.13.073.128.075.128.076.128.078.127.08.126.08.126.082.125.084.124.084.124.087.123.087.122.09.122.09.12.092.12.093.12.094.119.096.118.098.116.098.117.1.115.102.114.102.114.104.112.105.112.107.111.108.11.109.109.11.108.112.107.113.106.114.105.116.104.116.102.118.102.12.101.12.1.121.098.123.098.124.096.125.096.126.094.128.093.128.091.13.09.13.09.132.088.133.087.134.086.136.084.136.084.137.081.138.081.14.08.14.077.141.077.143.075.143.074.144.073.145.07.146.07.148.07.148.066.148.066.15.064.15.063.152.06.152.06.154.059.154.057.154.055.156.054.156.052.157.05.158.05.158.048.16.046.16.044.16.043.161.042.162.04.163.038.163.036.164.035.164.034.165.032.166.03.165.028.167.027.167.025.168.024.167.021.169.02.169.019.169.017.17.015.17.013.17.011.17.01.172.009.172.006.171.005.172.003.172v.346l-.002.173-.004.173-.006.173-.008.173-.009.174-.011.174-.013.174-.015.173-.016.175-.019.174-.02.174-.022.174-.023.174-.026.174-.027.173-.03.174-.03.174-.033.174-.034.173-.037.174-.038.173-.04.173-.041.173-.044.172-.045.173-.047.172-.05.172-.05.171-.053.172-.054.17-.056.171-.058.17-.06.17-.062.17-.063.169-.065.168-.067.168-.07.168-.07.167-.072.166-.074.166-.076.166-.078.165-.08.164-.08.164-.083.163-.085.162-.087.162-.088.16-.09.161-.092.16-.093.158-.095.158-.097.157-.099.157-.1.155-.102.155-.104.154-.105.153-.107.152-.109.151-.11.15-.112.15-.114.148-.116.147-.117.147-.118.145-.12.144-.122.143-.124.142-.125.142-.127.14-.128.138-.13.138-.13.136-.134.135-.134.134-.136.133-.138.132-.138.13-.14.13-.143.127-.143.126-.145.126-.146.123-.148.123-.149.12-.15.12-.152.119-.154.117-.154.115-.156.114-.157.112-.16.112-.159.11-.161.107-.163.107-.164.105-.165.103-.166.102-.168.1-.168.099-.17.097-.171.095-.173.094-.173.092-.175.09-.175.09-.177.087-.178.085-.179.084-.18.082-.181.08-.182.078-.183.077-.184.075-.185.073-.186.071-.187.07-.188.067-.189.066-.19.064-.19.062-.191.06-.192.059-.193.056-.194.055-.195.052-.195.05-.196.05-.197.046-.197.045-.198.043-.2.041-.199.04-.2.036-.2.035-.201.033-.202.03-.202.03-.203.027-.204.025-.203.022-.205.021-.204.019-.206.016-.205.015-.206.013-.206.01-.207.008-.207.007-.207.004-.207.002h-.208l-.208-.002-.208-.005-.208-.006-.209-.009-.209-.01-.208-.013-.21-.015-.208-.017-.21-.02-.208-.02-.21-.024-.208-.026-.21-.028-.208-.03-.21-.032-.208-.034-.209-.036-.208-.039-.209-.04-.208-.044-.208-.045-.207-.047-.208-.05-.207-.05-.207-.054-.207-.056-.206-.058-.206-.06-.205-.063-.205-.064-.205-.067-.204-.068-.204-.071-.203-.073-.203-.075-.202-.078-.202-.079-.2-.081-.201-.084-.2-.086-.2-.088-.197-.09-.198-.092-.197-.094-.197-.096-.195-.099-.195-.1-.194-.103-.193-.104-.192-.107-.192-.109-.19-.11-.19-.113-.188-.115-.188-.117-.186-.119-.186-.12-.185-.123-.184-.125-.182-.127-.181-.129-.18-.13-.18-.133-.178-.135-.177-.137-.175-.138-.175-.14-.173-.143-.172-.144-.17-.146-.17-.148-.168-.15-.167-.152-.165-.153-.164-.156-.163-.157-.161-.159-.16-.16-.158-.163-.157-.164-.155-.166-.154-.168-.152-.17-.15-.17-.15-.173-.148-.175-.145-.176-.145-.178-.142-.18-.141-.18-.14-.183-.137-.184-.136-.186-.134-.187-.133-.189-.13-.19-.129-.192-.127-.194-.125-.194-.124-.197-.121-.197-.12-.2-.117-.2-.116-.202-.114-.203-.112-.204-.11-.206-.108-.207-.106-.209-.104-.21-.102-.21-.1-.213-.099-.213-.096-.215-.093-.215-.092-.217-.09-.218-.088-.22-.085-.22-.083-.22-.082-.223-.079-.224-.076-.224-.075-.225-.073-.226-.07-.227-.068-.229-.066-.229-.063-.23-.062-.23-.059-.232-.057-.232-.054-.233-.052-.234-.05-.234-.048-.236-.045-.236-.043-.236-.04-.238-.039-.237-.036-.239-.033-.239-.031-.24-.029-.24-.026-.24-.024-.242-.022-.241-.019-.242-.017-.242-.014-.243-.012-.243-.01-.244-.006-.243-.005-.244-.002-.245v-.244l.003-.245.006-.245.008-.245.01-.245.012-.245.016-.246.017-.245.02-.245.023-.246.025-.245.028-.246.03-.245.033-.245.035-.245.038-.245.04-.245.043-.245.045-.244.047-.244.05-.244.053-.243.055-.243.058-.243.06-.242.063-.242.065-.242.068-.241.07-.24.072-.24.075-.24.078-.24.08-.238.083-.238.085-.237.087-.236.09-.236.092-.235.095-.235.097-.233.1-.233.102-.232.105-.231.107-.23.11-.23.111-.228.114-.228.117-.226.119-.226.121-.224.124-.224.126-.222.128-.221.131-.22.133-.22.136-.217.137-.217.14-.216.143-.214.145-.213.146-.211.15-.21.151-.21.154-.207.155-.206.159-.205.16-.204.162-.202.165-.2.167-.199.169-.197.17-.196.174-.194.175-.193.178-.191.18-.19.18-.187.184-.186.186-.184.188-.183.19-.18.191-.18.194-.177.195-.176.198-.173.2-.172.2-.17.204-.168.205-.166.207-.164.208-.162.21-.16.213-.158.214-.156.216-.155.218-.151.22-.15.22-.148.223-.146.224-.143.226-.142.228-.139.229-.137.23-.135.233-.132.234-.13.235-.129.237-.126.239-.123.24-.121.24-.119.243-.116.244-.114.245-.112.247-.11.248-.106.25-.105.25-.102.252-.1.253-.097.254-.094.255-.093.257-.09.257-.086.259-.085.26-.082.26-.08.262-.076.263-.074.264-.072.265-.07.265-.066.267-.063.267-.062.269-.058.269-.056.27-.053.27-.05.271-.048.272-.045.273-.043.273-.04.275-.036.274-.034.275-.032.276-.028.276-.026.277-.023.277-.02.278-.018.278-.015.278-.012.279-.009.279-.006.28-.004h.279l.28.002.28.005.28.008.28.01.281.014.28.016.281.02.281.021.28.025.281.028.281.03.28.034.281.037.28.039.28.042.28.045.28.047.28.051.28.054.278.056.279.06.278.061.278.065.277.068.277.07.276.074.276.076.276.08.274.082.275.084.273.088.273.09.272.094.272.096.27.099.27.102.27.104.268.108.267.11.267.113.266.115.264.119.264.121.263.124.261.127.261.13.26.131.258.135.257.138.256.14.255.143.254.146.252.148.251.15.25.155.248.156.247.159.246.161.244.164.243.167.241.169.24.172.238.174.237.177.235.179.233.182.232.184.23.187.229.19.227.19.225.195.223.196.221.2.22.2.218.204.215.206.214.208.212.21.21.214.209.215.206.217.204.22.202.222.2.224.198.226.195.228.194.23.192.233.189.235.187.236.185.24.182.24.18.243.179.245.175.246.173.249.171.25.169.253.166.255.164.256.161.258.16.26.155.261.154.264.152.265.148.267.147.268.143.27.141.272.139.273.135.275.133.277.13.278.129.28.125.28.122.283.12.284.116.285.114.287.112.288.108.289.106.29.102.292.1.293.097.294.094.296.092.297.088.297.086.299.082.3.08.3.076.303.074.302.07.304.068.305.065.305.062.307.058.307.056.308.052.309.05.31.046.31.043.31.04.312.038.312.034.313.03.313.029.314.024.314.022.315.018.315.015.315.013.316.008.316.006.317.003.316v.317l-.004.317-.008.318-.01.317-.013.318-.016.317-.02.318-.023.318-.026.317-.03.318-.032.317-.036.318-.039.317-.042.317-.045.317-.049.316-.051.316-.055.316-.059.316-.061.315-.065.315-.067.314-.072.313-.074.314-.077.312-.08.313-.084.311-.088.31-.09.311-.093.31-.096.308-.1.308-.103.307-.106.306-.109.306-.112.304-.116.304-.118.302-.122.302-.124.3-.128.3-.131.298-.134.297-.137.296-.14.295-.144.294-.146.292-.15.29-.151.29-.156.289-.158.287-.161.285-.165.284-.167.283-.17.28-.173.28-.176.278-.18.277-.181.274-.185.273-.188.272-.19.27-.193.267-.197.266-.198.264-.202.263-.205.26-.207.259-.21.256-.212.255-.216.253-.218.25-.22.25-.224.246-.226.244-.229.242-.23.24-.235.239-.236.235-.239.234-.241.231-.244.23-.246.226-.249.224-.251.222-.254.22-.256.216-.258.215-.26.212-.264.21-.265.207-.267.205-.27.201-.272.2-.274.197-.276.194-.278.191-.28.189-.283.186-.285.183-.287.18-.288.179-.291.174-.292.173-.295.169-.296.166-.299.164-.3.16-.302.158-.303.155-.306.151-.307.15-.309.145-.31.142-.313.14-.313.137-.316.133-.317.13-.318.128-.32.124-.322.121-.322.118-.325.114-.325.112-.327.108-.328.105-.33.102-.33.098-.333.095-.333.092-.334.089-.335.085-.337.082-.337.079-.339.075-.34.072-.34.068-.34.065-.343.062-.343.058-.344.055-.345.051-.345.048-.346.045-.347.04-.347.038-.348.034-.349.031-.35.027-.349.024-.35.02-.35.016-.351.013-.352.01-.351.006-.352.002h-.352l-.352-.006-.353-.008-.353-.011-.353-.016-.352-.019-.353-.022-.353-.026-.353-.03-.353-.033-.353-.037-.352-.04-.353-.044-.352-.048-.352-.05-.352-.055-.35-.059-.352-.061-.35-.066-.35-.069-.35-.072-.35-.076-.348-.08-.348-.083-.348-.087-.347-.09-.346-.094-.345-.097-.345-.101-.344-.105-.343-.108-.342-.111-.341-.115-.34-.119-.34-.122-.339-.125-.337-.13-.336-.132-.336-.136-.334-.139-.332-.143-.332-.146-.33-.15-.33-.153-.327-.156-.327-.16-.325-.163-.323-.167-.322-.17-.321-.173-.32-.177-.317-.18-.316-.183-.314-.186-.313-.19-.31-.193-.31-.196-.307-.2-.306-.203-.303-.205-.302-.21-.3-.212-.298-.215-.296-.218-.294-.222-.292-.225-.29-.227-.288-.231-.286-.234-.284-.237-.281-.24-.28-.242-.276-.246-.275-.248-.272-.252-.27-.254-.268-.257-.265-.26-.262-.263-.26-.266-.258-.268-.256-.271-.252-.274-.25-.277-.248-.279-.245-.282-.242-.284-.24-.287-.236-.29-.234-.292-.231-.295-.229-.297-.225-.3-.223-.302L9 64.41l-.217-.307-.214-.31-.21-.31-.209-.314-.205-.316-.202-.319-.198-.32-.196-.323-.193-.325-.19-.326-.186-.33-.183-.33-.18-.333-.177-.335-.173-.337-.17-.34-.168-.34-.163-.343-.16-.344-.158-.346-.153-.348-.15-.35-.147-.352-.144-.353-.14-.354-.136-.357-.133-.358-.13-.359-.125-.36-.123-.363-.119-.364-.115-.365-.112-.367-.108-.368-.104-.369-.101-.37-.097-.371-.094-.373-.09-.374-.086-.375-.083-.376-.078-.377-.075-.378-.072-.379-.067-.38-.064-.38-.06-.382-.056-.382-.053-.383-.048-.384-.045-.385-.041-.385-.037-.386-.034-.386-.03-.387-.025-.387-.021-.388-.018-.388-.014-.389-.01-.389-.007-.39-.002-.389.001-.39.006-.39.01-.39.013-.39.017-.39.02-.39.026-.39.029-.39.033-.39.036-.39.041-.39.045-.39.048-.389.053-.389.056-.388.06-.389.065-.388.068-.387.072-.387.076-.386.08-.386.084-.385.088-.385.091-.383.096-.384.1-.382.102-.381.108-.38.11-.38.116-.38.118-.377.123-.377.127-.376.13-.375.134-.373.138-.373.142-.37.145-.37.15-.37.153-.367.157-.366.16-.364.165-.363.168-.362.172-.36.175-.359.18-.357.182-.355.187-.354.19-.352.194-.35.197-.348.201-.347.205-.345.208-.343.212-.34.215-.34.22-.337.221-.335.226-.332.23-.331.232-.329.236-.326.24-.324.243-.322.246-.32.25-.317.252-.315.257-.313.26-.31.262-.307.266-.306.27-.302.271-.3.276-.298.279-.294.281-.293.285-.29.288-.286.291-.284.294-.281.297-.278.3-.276.303-.272.305-.27.309-.267.311-.264.314-.26.317-.258.32-.255.323-.251.325-.248.328-.246.33-.242.333-.239.336-.235.338-.233.341-.229.343-.225.346-.223.348-.219.35-.215.353-.212.356-.209.357-.205.36-.202.361-.198.365-.195.366-.19.368-.188.37-.184.373-.18.375-.177.376-.173.379-.169.38-.165.382-.162.384-.158.386-.154.387-.15.39-.147.39-.142.393-.139.395-.135.395-.13.398-.128.398-.123.4-.119.402-.115.403-.11.405-.108.405-.103.407-.1.408-.094.41-.091.41-.087.411-.083.413-.079.414-.074.414-.07.416-.067.416-.062.417-.058.418-.054.42-.05.419-.045.42-.04.42-.038.422-.033.422-.028.423-.025.423-.02.423-.015.424-.012.424-.007.425-.003h.424l.425.006.425.01.426.014.425.018.425.023.426.027.425.031.425.036.426.04.425.044.424.048.425.053.424.057.424.061.423.066.423.07.423.074.422.078.422.083.42.087.42.091.42.096.42.1.417.104.418.108.416.113.415.117.415.12.413.126.413.13.411.133.41.138.41.142.408.147.407.15.405.155.404.158.403.163.401.167.4.172.398.175.397.18.395.183.394.187.392.191.39.196.388.2.387.203.385.208.383.211.38.216.38.219.377.223.375.227.373.231.371.235.369.239.366.243.365.246.362.25.36.254.357.257.355.262.352.265.35.268.348.273.345.276.342.279.34.283.337.287.335.29.332.293.329.298.326.3.323.304.32.307.318.31.315.315.312.317.308.32.306.325.302.327.3.33.296.333.293.337.29.34.287.342.283.346.28.348.277.352.273.354.27.358.267.36.263.363.259.366.256.369.252.371.25.375.245.376.241.38.238.382.234.384.23.388.227.39.223.391.22.395.215.396.211.4.208.401.204.404.2.406.195.408.192.41.188.413.184.414.18.416.175.419.171.42.168.422.163.424.16.426.154.428.151.43.147.43.142.433.138.435.134.436.13.437.124.44.121.44.117.442.112.443.108.444.103.446.099.447.094.448.09.45.086.45.081.451.077.453.072.453.068.455.063.455.059.456.054.457.05.457.045.458.04.46.036.459.032.46.027.46.022.461.017.462.013.461.009.462.004.463-.001.462-.006.463-.01.463-.014.463-.02.463-.024.463-.029.463-.033.462-.038.463-.042.463-.048.462-.052.462-.056.461-.061.462-.066.46-.07.46-.075.46-.08.46-.084.459-.09.457-.093.458-.098.456-.103.456-.108.455-.112.454-.116.453-.121.452-.126.45-.13.45-.136.45-.14.447-.143.446-.149.445-.153.444-.157.442-.162.441-.167.44-.171.438-.176.436-.18.435-.184.433-.189.432-.193.43-.198.428-.202.426-.206.425-.21.422-.216.42-.22.42-.223.416-.228.414-.232.412-.236.41-.241.408-.245.406-.249.403-.253.401-.257.399-.262.396-.265.394-.27.39-.273.39-.278.385-.282.384-.285.38-.29.378-.293.375-.297.373-.301.37-.305.366-.31.364-.312.36-.316.358-.32.355-.324.352-.328.348-.33.346-.336.342-.338.339-.342.335-.345.333-.349.329-.352.325-.356.322-.36.32-.362.314-.366.312-.369.308-.372.305-.376.3-.378.298-.382.294-.386.29-.388.286-.39.282-.395.279-.397.274-.4.271-.403.267-.406.263-.409.258-.411.255" stroke="#FE2C55" stroke-width="3"/></svg>